# xmcd CD database file
#
# Track frame offsets:
#	150
#	28809
#	51935
#	74553
#	96151
#	116232
#	137438
#	157351
#	176357
#	193008
#	206681
#	245588
#
# Disc length: 3704 seconds
#
# Revision: 0
# Processed by: cddbd v1.4PL0 Copyright (c) Steve Scherf et al.
# Submitted via: CDex 1.40Beta9
#
DISCID=b80e760c
DTITLE=Eric Clapton and BB King - Riding With the King
DYEAR=1900
DGENRE=Blues
TTITLE0=Riding with the King
TTITLE1=Ten Long Years
TTITLE2=Key to The Highway
TTITLE3=Marry You
TTITLE4=Three O'Clock Blues
TTITLE5=Help the Poor
TTITLE6=I Wanna Be 
TTITLE7=Worried Life Blues
TTITLE8=Days of Old
TTITLE9=When My Heart Beats Like A Hammer
TTITLE10=Hold On I'm Coming
TTITLE11=Come Rain or Come Shine
EXTD=ID3G: 0
EXTT0=
EXTT1=
EXTT2=
EXTT3=
EXTT4=
EXTT5=
EXTT6=
EXTT7=
EXTT8=
EXTT9=
EXTT10=
EXTT11=
PLAYORDER=
